<svg version="1.1" id="Layer_1" xmlns="http://www.w3.org/2000/svg" xmlns:xlink="http://www.w3.org/1999/xlink" x="0px" y="0px"
	 width="100%" viewBox="0 0 500 500" enable-background="new 0 0 500 500" xml:space="preserve">
<path fill="" opacity="0" stroke="none" 
	d="
M228.000000,501.000000 
	C152.000015,501.000000 76.500038,501.000000 1.000041,501.000000 
	C1.000027,334.333405 1.000027,167.666779 1.000013,1.000130 
	C167.666565,1.000087 334.333130,1.000087 500.999756,1.000043 
	C500.999847,167.666534 500.999847,334.333069 500.999939,500.999817 
	C410.166656,501.000000 319.333344,501.000000 228.000000,501.000000 
M322.016174,331.015045 
	C322.016174,331.015045 322.017426,331.110443 322.553558,330.948364 
	C322.739380,330.637329 322.925201,330.326324 323.015167,330.014252 
	C323.015167,330.014252 323.015869,330.110046 323.553589,329.947327 
	C323.745697,329.638000 323.937805,329.328674 324.575470,328.904266 
	C324.861053,328.727875 325.010864,328.472015 325.558411,327.937286 
	C325.649109,327.606934 325.739807,327.276581 325.974243,326.543030 
	C325.974243,326.543030 326.021667,326.117615 326.540924,325.931976 
	C326.725800,325.625763 326.910675,325.319550 327.014282,325.014099 
	C327.014282,325.014099 327.016754,325.095337 327.535553,324.920746 
	C327.720947,324.617889 327.906342,324.315063 328.013519,324.011871 
	C328.013519,324.011871 328.014648,324.090118 328.537018,323.925415 
	C328.724304,323.623169 328.911591,323.320923 329.029266,323.021515 
	C329.029266,323.021515 329.054718,323.086395 329.653656,322.857727 
	C329.802246,322.247406 329.950806,321.637085 330.735474,320.757141 
	C348.952332,293.612946 359.586700,243.787003 349.835785,231.016129 
	C333.092102,241.913177 315.105316,250.307220 296.324066,256.993744 
	C272.438660,265.497467 247.971008,271.628448 222.668213,274.008942 
	C207.314697,275.453430 191.958023,276.985352 176.567780,277.867218 
	C169.029831,278.299133 161.402603,277.480804 153.832520,276.976929 
	C140.231491,276.071716 126.619164,275.207123 113.066200,273.799438 
	C109.678658,273.447571 109.733414,274.415405 110.284637,276.725525 
	C117.188522,305.658875 132.089355,329.610107 155.547653,347.927429 
	C173.562439,361.994232 194.348297,370.277527 216.896744,372.707367 
	C230.539810,374.177521 244.469864,373.536926 258.109436,370.071869 
	C280.793121,364.309143 300.440369,353.375671 317.759552,336.808807 
	C318.873657,335.222076 319.987732,333.635315 321.028839,332.035461 
	C321.028839,332.035461 321.019684,332.109070 321.555206,331.947723 
	C321.740662,331.637024 321.926117,331.326324 322.016174,331.015045 
M459.026855,160.959412 
	C459.026855,160.959412 459.101685,160.911255 458.813293,160.261612 
	C457.885345,160.233231 456.957428,160.204849 455.293396,159.851196 
	C453.580688,159.699493 451.620880,158.929596 450.196381,159.498978 
	C442.447510,162.596191 434.519409,165.465790 427.265900,169.512314 
	C421.371826,172.800430 416.037292,172.367294 410.584198,169.794067 
	C401.993835,165.740417 393.598877,161.272690 384.765503,156.301346 
	C380.328247,153.899780 375.763489,152.794540 370.446289,155.016953 
	C370.446289,155.016953 370.038147,155.183365 369.338562,155.215073 
	C367.102966,157.163788 367.608337,158.763107 370.223114,160.759460 
	C380.942230,169.424255 391.661377,178.089050 402.615387,186.943726 
	C396.475525,191.923386 390.559906,196.054565 385.464661,201.026443 
	C379.418518,206.926117 373.238190,207.530930 366.167328,203.605835 
	C366.026825,203.527863 365.916992,203.281738 365.801697,203.287567 
	C361.382446,203.511414 356.313080,200.952423 352.544037,206.327469 
	C354.277954,207.563034 355.716431,208.576691 357.143036,209.606827 
	C361.265991,212.583923 368.166748,212.489944 368.412048,219.800415 
	C368.423279,220.135803 369.077606,220.668411 369.493988,220.737381 
	C373.417023,221.387161 372.825104,224.388626 373.041718,227.126251 
	C373.354462,231.078964 373.915405,235.012024 374.397125,239.184402 
	C382.034729,236.438416 382.034729,236.438416 383.223297,217.301376 
	C392.446411,212.777618 401.727631,208.225372 411.441620,203.460831 
	C412.071320,205.241577 412.642853,206.540009 412.992065,207.895676 
	C415.810242,218.835419 418.501801,229.808945 421.458984,240.710587 
	C421.952881,242.531342 423.545288,244.054123 424.630096,245.714600 
	C426.112366,244.306000 427.875519,243.093262 429.021454,241.450073 
	C431.852936,237.389999 431.523071,232.920639 431.227356,228.069748 
	C430.740112,220.077576 431.303009,211.960495 432.131989,203.969604 
	C432.719910,198.302719 433.832367,192.982132 440.330841,189.786438 
	C446.754547,186.627502 452.183655,181.446060 458.667999,176.832016 
	C459.477783,175.238098 460.287567,173.644180 461.028992,172.011032 
	C461.028992,172.011032 461.058014,172.084305 461.796570,171.683151 
	C461.350037,168.400650 463.886414,164.586121 460.036560,161.977905 
	C460.036560,161.977905 460.107849,161.988800 459.939240,161.471466 
	C459.645447,161.272995 459.351654,161.074509 459.026855,160.959412 
M177.947556,263.978210 
	C186.634369,263.934113 195.321167,263.890045 204.858444,263.990448 
	C206.774353,263.657776 208.679138,263.226990 210.607986,263.008514 
	C222.641983,261.645233 234.717270,260.590393 246.711121,258.940826 
	C268.211212,255.983810 289.305664,251.144196 309.813171,243.968613 
	C323.818970,239.067993 337.748932,233.952454 350.150421,225.129852 
	C342.648438,194.784378 327.154175,169.752716 301.718140,151.252579 
	C276.202362,132.694473 247.479767,125.939934 216.402267,129.069855 
	C172.252396,133.516373 116.155037,167.443954 107.323929,242.025940 
	C100.127373,238.849442 93.039848,236.195938 86.463432,232.606094 
	C83.443695,230.957718 81.270020,227.599060 78.991447,224.789841 
	C75.324722,220.269211 78.834343,211.331238 83.084869,207.478226 
	C87.566338,203.415878 92.278564,199.608093 97.360161,195.289505 
	C96.233994,195.145721 95.641777,194.994064 95.052902,195.006104 
	C82.231941,195.268250 70.663368,199.781235 61.051239,207.732086 
	C46.313042,219.923035 50.956802,231.408249 60.146160,239.252350 
	C72.681580,249.952682 88.271492,254.999954 104.331482,257.896515 
	C116.342560,260.062805 128.468933,261.893066 140.624557,262.869171 
	C152.705963,263.839355 164.888046,263.555664 177.947556,263.978210 
z"/>
<path fill="#FCAF58" opacity="1.000000" stroke="none" 
	d="
M177.025986,263.821838 
	C164.888046,263.555664 152.705963,263.839355 140.624557,262.869171 
	C128.468933,261.893066 116.342560,260.062805 104.331482,257.896515 
	C88.271492,254.999954 72.681580,249.952682 60.146160,239.252350 
	C50.956802,231.408249 46.313042,219.923035 61.051239,207.732086 
	C70.663368,199.781235 82.231941,195.268250 95.052902,195.006104 
	C95.641777,194.994064 96.233994,195.145721 97.360161,195.289505 
	C92.278564,199.608093 87.566338,203.415878 83.084869,207.478226 
	C78.834343,211.331238 75.324722,220.269211 78.991447,224.789841 
	C81.270020,227.599060 83.443695,230.957718 86.463432,232.606094 
	C93.039848,236.195938 100.127373,238.849442 107.323929,242.025940 
	C116.155037,167.443954 172.252396,133.516373 216.402267,129.069855 
	C247.479767,125.939934 276.202362,132.694473 301.718140,151.252579 
	C327.154175,169.752716 342.648438,194.784378 350.150421,225.129852 
	C337.748932,233.952454 323.818970,239.067993 309.813171,243.968613 
	C289.305664,251.144196 268.211212,255.983810 246.711121,258.940826 
	C234.717270,260.590393 222.641983,261.645233 210.607986,263.008514 
	C208.679138,263.226990 206.774353,263.657776 204.086517,263.691772 
	C194.551727,263.536011 185.788849,263.678925 177.025986,263.821838 
z"/>
<path fill="#FCAF58" opacity="1.000000" stroke="none" 
	d="
M317.143158,337.049408 
	C300.440369,353.375671 280.793121,364.309143 258.109436,370.071869 
	C244.469864,373.536926 230.539810,374.177521 216.896744,372.707367 
	C194.348297,370.277527 173.562439,361.994232 155.547653,347.927429 
	C132.089355,329.610107 117.188522,305.658875 110.284637,276.725525 
	C109.733414,274.415405 109.678658,273.447571 113.066200,273.799438 
	C126.619164,275.207123 140.231491,276.071716 153.832520,276.976929 
	C161.402603,277.480804 169.029831,278.299133 176.567780,277.867218 
	C191.958023,276.985352 207.314697,275.453430 222.668213,274.008942 
	C247.971008,271.628448 272.438660,265.497467 296.324066,256.993744 
	C315.105316,250.307220 333.092102,241.913177 349.835785,231.016129 
	C359.586700,243.787003 348.952332,293.612946 330.187500,321.086426 
	C329.444580,321.972565 329.249634,322.529480 329.054688,323.086395 
	C329.054718,323.086395 329.029266,323.021515 328.843567,323.155670 
	C328.443451,323.556610 328.229065,323.823364 328.014648,324.090118 
	C328.014648,324.090118 328.013519,324.011871 327.833435,324.150116 
	C327.441162,324.557343 327.228973,324.826355 327.016754,325.095337 
	C327.016754,325.095337 327.014282,325.014099 326.834930,325.155457 
	C326.444275,325.570435 326.232971,325.844025 326.021667,326.117615 
	C326.021667,326.117615 325.974243,326.543030 325.725342,326.912476 
	C325.262573,327.533356 325.112061,327.818268 325.024872,328.136658 
	C325.010864,328.472015 324.861053,328.727875 324.124146,329.095886 
	C323.453857,329.561707 323.234863,329.835876 323.015869,330.110046 
	C323.015869,330.110046 323.015167,330.014252 322.838989,330.152557 
	C322.447693,330.564056 322.232544,330.837250 322.017426,331.110443 
	C322.017426,331.110443 322.016174,331.015045 321.839905,331.152649 
	C321.448944,331.563171 321.234314,331.836121 321.019684,332.109070 
	C321.019684,332.109070 321.028839,332.035461 320.723633,332.082855 
	C319.326691,333.769958 318.234924,335.409698 317.143158,337.049408 
z"/>
<path fill="#F6C786" opacity="1.000000" stroke="none" 
	d="
M370.038147,155.183365 
	C370.038147,155.183365 370.446289,155.016953 371.109680,154.992126 
	C376.222443,155.638306 380.671844,156.309280 385.121216,156.980270 
	C393.598877,161.272690 401.993835,165.740417 410.584198,169.794067 
	C416.037292,172.367294 421.371826,172.800430 427.265900,169.512314 
	C434.519409,165.465790 442.447510,162.596191 450.196381,159.498978 
	C451.620880,158.929596 453.580688,159.699493 455.924744,160.204102 
	C457.404633,160.675079 458.253143,160.793167 459.101685,160.911255 
	C459.101685,160.911255 459.026855,160.959412 459.171509,161.143234 
	C459.580078,161.547638 459.843964,161.768219 460.107849,161.988800 
	C460.107849,161.988800 460.036560,161.977905 460.047577,162.361053 
	C460.391724,165.857574 460.724854,168.970932 461.058014,172.084305 
	C461.058014,172.084305 461.028992,172.011032 460.695129,172.085449 
	C459.590515,173.823853 458.819794,175.487839 458.049072,177.151825 
	C452.183655,181.446060 446.754547,186.627502 440.330841,189.786438 
	C433.832367,192.982132 432.719910,198.302719 432.131989,203.969604 
	C431.303009,211.960495 430.740112,220.077576 431.227356,228.069748 
	C431.523071,232.920639 431.852936,237.389999 429.021454,241.450073 
	C427.875519,243.093262 426.112366,244.306000 424.630066,245.714600 
	C423.545288,244.054123 421.952881,242.531342 421.458984,240.710587 
	C418.501801,229.808945 415.810242,218.835419 412.992065,207.895676 
	C412.642853,206.540009 412.071320,205.241577 411.441620,203.460831 
	C401.727631,208.225372 392.446411,212.777618 383.223297,217.301376 
	C382.034729,236.438416 382.034729,236.438416 374.397125,239.184402 
	C373.915405,235.012024 373.354462,231.078964 373.041718,227.126251 
	C372.825104,224.388626 373.417023,221.387161 369.493988,220.737381 
	C369.077606,220.668411 368.423279,220.135803 368.412048,219.800415 
	C368.166748,212.489944 361.265991,212.583923 357.143036,209.606827 
	C355.716431,208.576691 354.277954,207.563034 352.544037,206.327469 
	C356.313080,200.952423 361.382446,203.511414 365.801697,203.287567 
	C365.916992,203.281738 366.026825,203.527863 366.167328,203.605835 
	C373.238190,207.530930 379.418518,206.926117 385.464661,201.026443 
	C390.559906,196.054565 396.475525,191.923386 402.615387,186.943726 
	C391.661377,178.089050 380.942230,169.424255 370.102570,160.027679 
	C370.000732,157.925049 370.019440,156.554199 370.038147,155.183365 
z"/>
<path fill="#E0C599" opacity="1.000000" stroke="none" 
	d="
M177.486771,263.900024 
	C185.788849,263.678925 194.551727,263.536011 203.661285,263.619507 
	C195.321167,263.890045 186.634369,263.934113 177.486771,263.900024 
z"/>
<path fill="#E4CB9A" opacity="1.000000" stroke="none" 
	d="
M384.943359,156.640808 
	C380.671844,156.309280 376.222443,155.638306 371.326233,154.951309 
	C375.763489,152.794540 380.328247,153.899780 384.943359,156.640808 
z"/>
<path fill="#E7C295" opacity="1.000000" stroke="none" 
	d="
M317.451355,336.929108 
	C318.234924,335.409698 319.326691,333.769958 320.760132,332.089417 
	C319.987732,333.635315 318.873657,335.222076 317.451355,336.929108 
z"/>
<path fill="#EACA9A" opacity="1.000000" stroke="none" 
	d="
M461.427307,171.883728 
	C460.724854,168.970932 460.391724,165.857574 460.055817,162.325943 
	C463.886414,164.586121 461.350037,168.400650 461.427307,171.883728 
z"/>
<path fill="#EACA9A" opacity="1.000000" stroke="none" 
	d="
M458.358521,176.991913 
	C458.819794,175.487839 459.590515,173.823853 460.729309,172.105057 
	C460.287567,173.644180 459.477783,175.238098 458.358521,176.991913 
z"/>
<path fill="#E4CB9A" opacity="1.000000" stroke="none" 
	d="
M369.688354,155.199219 
	C370.019440,156.554199 370.000732,157.925049 369.973328,159.711166 
	C367.608337,158.763107 367.102966,157.163788 369.688354,155.199219 
z"/>
<path fill="#EACA9A" opacity="1.000000" stroke="none" 
	d="
M458.957489,160.586426 
	C458.253143,160.793167 457.404633,160.675079 456.292786,160.366730 
	C456.957428,160.204849 457.885345,160.233231 458.957489,160.586426 
z"/>
<path fill="#E7C295" opacity="1.000000" stroke="none" 
	d="
M329.354187,322.972046 
	C329.249634,322.529480 329.444580,321.972565 329.869446,321.221222 
	C329.950806,321.637085 329.802246,322.247406 329.354187,322.972046 
z"/>
<path fill="#E7C295" opacity="1.000000" stroke="none" 
	d="
M328.275818,324.007751 
	C328.229065,323.823364 328.443451,323.556610 328.878357,323.154236 
	C328.911591,323.320923 328.724304,323.623169 328.275818,324.007751 
z"/>
<path fill="#E7C295" opacity="1.000000" stroke="none" 
	d="
M327.276154,325.008057 
	C327.228973,324.826355 327.441162,324.557343 327.872559,324.150299 
	C327.906342,324.315063 327.720947,324.617889 327.276154,325.008057 
z"/>
<path fill="#E7C295" opacity="1.000000" stroke="none" 
	d="
M326.281311,326.024780 
	C326.232971,325.844025 326.444275,325.570435 326.875580,325.155090 
	C326.910675,325.319550 326.725800,325.625763 326.281311,326.024780 
z"/>
<path fill="#E7C295" opacity="1.000000" stroke="none" 
	d="
M325.291626,328.036987 
	C325.112061,327.818268 325.262573,327.533356 325.653442,327.114075 
	C325.739807,327.276581 325.649109,327.606934 325.291626,328.036987 
z"/>
<path fill="#E7C295" opacity="1.000000" stroke="none" 
	d="
M323.284729,330.028687 
	C323.234863,329.835876 323.453857,329.561707 323.901367,329.153442 
	C323.937805,329.328674 323.745697,329.638000 323.284729,330.028687 
z"/>
<path fill="#E7C295" opacity="1.000000" stroke="none" 
	d="
M322.285492,331.029419 
	C322.232544,330.837250 322.447693,330.564056 322.886902,330.153076 
	C322.925201,330.326324 322.739380,330.637329 322.285492,331.029419 
z"/>
<path fill="#E7C295" opacity="1.000000" stroke="none" 
	d="
M321.287445,332.028381 
	C321.234314,331.836121 321.448944,331.563171 321.887604,331.152954 
	C321.926117,331.326324 321.740662,331.637024 321.287445,332.028381 
z"/>
<path fill="#EACA9A" opacity="1.000000" stroke="none" 
	d="
M460.023560,161.730133 
	C459.843964,161.768219 459.580078,161.547638 459.187042,161.101547 
	C459.351654,161.074509 459.645447,161.272995 460.023560,161.730133 
z"/>
</svg>